<svg xmlns="http://www.w3.org/2000/svg" viewBox="0 0 512 512">
    <defs>
        <linearGradient id="grad" x1="0%" y1="0%" x2="100%" y2="100%">
            <stop offset="0%" style="stop-color:#3b82f6;stop-opacity:1" />
            <stop offset="100%" style="stop-color:#1a56db;stop-opacity:1" />
        </linearGradient>
    </defs>
    <path fill="url(#grad)" d="M499.99,176h-59.87l-16.64-41.6c-1.76-4.4-6.03-7.29-10.74-7.29l-203.25,.1c-4.71,0-8.98,2.89-10.74,7.29l-16.64,41.6H12.01c-6.63,0-12,5.37-12,12v128c0,6.63,5.37,12,12,12h24.15c4.78,33.91,33.81,60,69.04,60s64.26-26.09,69.04-60h163.53c4.78,33.91,33.81,60,69.04,60s64.26-26.09,69.04-60h24.15c6.63,0,12-5.37,12-12V188c0-6.63-5.37-12-12-12ZM105.19,348c-15.44,0-28-12.56-28-28s12.56-28,28-28,28,12.56,28,28-12.56,28-28,28Zm301.62,0c-15.44,0-28-12.56-28-28s12.56-28,28-28,28,12.56,28,28-12.56,28-28,28Z"/>
</svg>
